/* XPM */
static char * gpa++_xpm[] = {
"77 66 240 2",
"  	c #000000",
". 	c #000000",
"+ 	c #000000",
"@ 	c #000000",
"# 	c #000000",
"$ 	c #000000",
"% 	c #000000",
"& 	c #000000",
"* 	c #FAF6F7",
"= 	c #F8F4F6",
"- 	c #EEEAEC",
"; 	c #ECE7E9",
"> 	c #E3DFE0",
", 	c #E0DCDD",
"' 	c #000000",
") 	c #000000",
"! 	c #000000",
"~ 	c #000000",
"{ 	c #000000",
"] 	c #000000",
"^ 	c #000000",
"/ 	c #000000",
"( 	c #ECE9EA",
"_ 	c #000000",
": 	c #000000",
"< 	c #000000",
"[ 	c #060603",
"} 	c #000000",
"| 	c #F8F8F6",
"1 	c #F6F6F3",
"2 	c #FFFEFB",
"3 	c #FDFBF8",
"4 	c #FBFAF7",
"5 	c #F3F1EE",
"6 	c #EEEDEA",
"7 	c #E4E3E0",
"8 	c #E3E2DF",
"9 	c #E0DFDC",
"0 	c #000000",
"a 	c #120D09",
"b 	c #000000",
"c 	c #1C1713",
"d 	c #000000",
"e 	c #211D19",
"f 	c #24201C",
"g 	c #000000",
"h 	c #433F3B",
"i 	c #3B3732",
"j 	c #46423E",
"k 	c #000000",
"l 	c #5D5955",
"m 	c #55504C",
"n 	c #524D49",
"o 	c #000000",
"p 	c #000000",
"q 	c #000000",
"r 	c #000000",
"s 	c #000000",
"t 	c #000000",
"u 	c #000000",
"v 	c #3F3A35",
"w 	c #67615D",
"x 	c #9A9590",
"y 	c #99938F",
"z 	c #98928E",
"A 	c #96908C",
"B 	c #958F8B",
"C 	c #938E89",
"D 	c #928C88",
"E 	c #908B86",
"F 	c #8F8985",
"G 	c #8C8682",
"H 	c #847E7A",
"I 	c #A9A39F",
"J 	c #A49F9A",
"K 	c #A09A96",
"L 	c #9C9692",
"M 	c #373230",
"N 	c #CBC7C4",
"O 	c #C9C5C2",
"P 	c #B8B4B1",
"Q 	c #B0ABA9",
"R 	c #AAA6A3",
"S 	c #E9E4E2",
"T 	c #DAD6D3",
"U 	c #D9D5D2",
"V 	c #1A1412",
"W 	c #17120F",
"X 	c #2D2724",
"Y 	c #857C78",
"Z 	c #827A75",
"` 	c #817874",
" .	c #7F7772",
"..	c #7C7470",
"+.	c #000000",
"@.	c #000000",
"#.	c #000000",
"$.	c #030100",
"%.	c #020000",
"&.	c #898481",
"*.	c #120F0D",
"=.	c #0F0C0A",
"-.	c #B4AEAB",
";.	c #ADA7A4",
">.	c #88817E",
",.	c #000000",
"'.	c #000000",
").	c #000000",
"!.	c #000000",
"~.	c #5C5350",
"{.	c #000000",
"].	c #000000",
"^.	c #000000",
"/.	c #6A615F",
"(.	c #665D5A",
"_.	c #645C59",
":.	c #5F5653",
"<.	c #020000",
"[.	c #010000",
"}.	c #000000",
"|.	c #000000",
"1.	c #776E6B",
"2.	c #756D6A",
"3.	c #726A67",
"4.	c #706764",
"5.	c #6D6461",
"6.	c #0A0605",
"7.	c #080302",
"8.	c #060201",
"9.	c #050100",
"0.	c #8B827F",
"a.	c #867E7B",
"b.	c #14100F",
"c.	c #120D0C",
"d.	c #0F0A09",
"e.	c #0D0908",
"f.	c #0C0806",
"g.	c #958C89",
"h.	c #908885",
"i.	c #201C1A",
"j.	c #1E1A19",
"k.	c #1D1917",
"l.	c #1C1716",
"m.	c #1A1614",
"n.	c #191413",
"o.	c #171312",
"p.	c #161210",
"q.	c #2D2827",
"r.	c #2B2726",
"s.	c #2A2624",
"t.	c #282423",
"u.	c #272321",
"v.	c #262120",
"w.	c #231E1D",
"x.	c #211D1C",
"y.	c #3C3837",
"z.	c #3B3735",
"A.	c #3A3534",
"B.	c #34302E",
"C.	c #2E2A28",
"D.	c #4F4B49",
"E.	c #4D4948",
"F.	c #4B4645",
"G.	c #484342",
"H.	c #45413F",
"I.	c #433F3E",
"J.	c #423E3C",
"K.	c #413C3B",
"L.	c #3F3B3A",
"M.	c #3E3A38",
"N.	c #575352",
"O.	c #55504F",
"P.	c #534F4D",
"Q.	c #524D4C",
"R.	c #BAB5B4",
"S.	c #A6A1A0",
"T.	c #8F8B89",
"U.	c #EDE9E7",
"V.	c #ECE7E6",
"W.	c #EAE6E4",
"X.	c #E0DCDA",
"Y.	c #DFDAD9",
"Z.	c #DDD9D8",
"`.	c #DCD8D6",
" +	c #D1CCCB",
".+	c #CFCBC9",
"++	c #CEC9C8",
"@+	c #CCC8C7",
"#+	c #7B716E",
"$+	c #7A706D",
"%+	c #988E8B",
"&+	c #9A908E",
"*+	c #322D2B",
"=+	c #C8C2C1",
"-+	c #C7C1BF",
";+	c #C5BFBE",
">+	c #C4BEBD",
",+	c #C1BBBA",
"'+	c #BEB8B7",
")+	c #B5B0AE",
"!+	c #F1ECEA",
"~+	c #E6E0DF",
"{+	c #E4DFDD",
"]+	c #E3DDDC",
"^+	c #D8D2D1",
"/+	c #D5CFCE",
"(+	c #D3CECC",
"_+	c #59504F",
":+	c #000000",
"<+	c #000000",
"[+	c #000000",
"}+	c #000000",
"|+	c #000000",
"1+	c #413838",
"2+	c #000000",
"3+	c #000000",
"4+	c #000000",
"5+	c #615959",
"6+	c #000000",
"7+	c #524B4B",
"8+	c #130F0F",
"9+	c #000000",
"0+	c #000000",
"a+	c #282424",
"b+	c #000000",
"c+	c #000000",
"d+	c #000000",
"e+	c #000000",
"f+	c #F4F1F1",
"g+	c #F0EDED",
"h+	c #EAE7E7",
"i+	c #F0EEEE",
"j+	c #FFFFFF",
"k+	c #FFFFFF",
"l+	c #FFFFFF",
"m+	c #FEFEFE",
"n+	c #FBFBFB",
"o+	c #F8F8F8",
"p+	c #F6F6F6",
"q+	c #F3F3F3",
"j+j+j+j+j+j+j+j+j+j+j+j+j+j+j+j+j+j+j+j+j+j+j+j+j+j+j+j+j+j+j+j+j+j+j+j+j+j+j+j+j+j+j+j+j+j+j+j+j+j+j+j+j+j+j+j+j+P.$.9.K j+j+j+j+j+j+j+j+j+j+j+j+j+j+j+j+",
"j+Q J.v v v v v v v v v v v v v v v v v v v v v v v v v v v v v v v v v v v v v v v v v v v v v v v v v v v v v v A.M M I.K.v v v v v v v v v v v v L.y j+",
"j+v.).H.H.H.H.H.H.H.H.H.H.H.H.H.H.H.H.H.H.H.H.H.H.H.H.H.H.H.H.H.H.H.H.H.H.H.H.H.H.H.H.H.H.H.H.H.H.H.H.H.H.H.H.H.H.G.G.G.G.H.H.H.H.H.H.H.H.H.H.H.H.H.f.].j+",
"j+u. .j+j+j+j+j+j+j+j+j+j+j+j+j+j+j+j+j+j+j+j+j+j+j+j+j+j+j+j+j+j+j+j+j+j+j+j+j+j+j+j+j+j+j+j+j+j+j+j+j+j+j+j+j+j+j+j+j+j+j+j+j+j+j+j+j+j+j+j+j+j+j+-.7.j+",
"j+t.w j+j+j+j+j+j+j+j+j+j+j+j+j+j+j+j+j+j+j+j+j+j+j+j+j+j+j+j+j+j+j+j+j+j+j+j+j+j+j+j+j+j+j+j+j+j+j+j+j+j+j+j+j+j+j+j+j+j+j+j+j+j+j+j+j+j+j+j+j+j+j+x 7.j+",
"j+t.w j+j+j+j+j+j+j+j+j+j+j+j+j+j+j+j+j+j+j+j+j+j+j+j+j+j+j+j+j+j+j+j+j+j+j+j+j+j+j+j+j+j+j+j+j+j+j+j+j+j+j+j+j+j+j+j+j+j+j+j+j+j+j+j+j+j+j+j+j+j+j+x 7.j+",
"j+t.w j+j+j+j+j+j+j+j+j+j+j+j+j+j+j+j+j+j+j+j+j+j+j+j+j+j+j+j+j+j+j+j+j+j+j+j+j+j+j+j+j+j+j+j+j+j+j+j+j+j+j+j+j+j+j+j+j+j+j+j+j+j+j+j+j+j+j+j+j+j+j+x 7.j+",
"j+t.w j+j+j+j+j+j+j+j+j+j+j+j+j+j+j+j+j+j+j+j+j+j+j+j+j+j+j+j+j+j+j+j+j+j+j+j+j+j+j+j+j+j+j+j+j+j+j+j+j+j+j+j+j+j+j+j+j+j+j+j+j+j+j+j+j+j+j+j+j+j+j+x 7.j+",
"j+t.w j+j+j+j+j+j+j+j+j+j+j+j+j+j+j+j+j+j+j+j+j+j+j+j+j+j+j+j+j+j+j+j+j+j+j+j+j+j+j+j+j+j+j+j+j+j+j+j+j+j+j+j+j+j+j+j+j+j+j+j+j+j+j+j+j+j+j+j+j+j+j+x 7.j+",
"j+t.w j+j+j+j+j+j+j+J 3+,+j+j+j+j+j+j+j+j+j+j+j+j+j+j+j+j+j+j+j+j+j+j+j+j+j+r.W.j+j+j+j+j+j+j+j+j+j+j+j+j+j+j+j+j+j+j+j+j+j+j+j+>++...j+j+j+j+j+j+j+x 7.j+",
"j+t.w j+j+j+j+j+j+j+5 x.G.j+j+j+j+j+j+j+j+j+j+j+j+j+j+j+j+j+j+j+j+j+j+j+j+j+} `.j+j+j+j+j+j+j+j+j+j+j+j+j+j+j+j+j+j+j+j+j+j+j+)+p.;.W.j+j+j+j+j+j+j+x 7.j+",
"j+t.w j+j+j+j+j+j+j+j+j+L.:.j+j+j+j+j+j+j+j+j+j+j+j+j+j+j+j+j+j+j+j+j+j+j+j+,.Y.j+j+j+j+j+j+j+j+j+j+j+j+j+j+j+j+j+j+j+j+j+j+R c.;+j+j+j+j+j+j+j+j+j+x 7.j+",
"j+t.w j+j+j+j+j+j+j+j+j+k+E.@.J j+j+j+j+j+j+j+j+j+j+j+j+j+j+j+j+j+j+j+j+j+j+,.Y.j+j+j+j+j+j+j+j+j+j+j+j+j+j+j+j+j+j+j+j+p+$.e.N j+j+j+j+j+j+j+j+j+j+x 7.j+",
"j+t.w j+j+j+j+j+j+j+j+j+j+j+Q x.E j+j+!+ +j+j+j+j+j+j+j+j+j+j+j+j+j+j+j+j+j+,.Y.j+j+j+j+j+j+j+j+j+j+j+j+j+j+j+j+`.`.j+X.l. .X.j+j+j+j+j+j+j+j+j+j+j+x 7.j+",
"j+t.w j+j+j+j+j+j+j+j+j+j+j+j+W.t.i `.I |.j+j+j+j+j+j+j+j+j+j+j+j+j+j+j+j+j+,.Y.j+j+j+j+j+j+j+j+j+j+j+j+j+j+j+N x.Q I.o.C j+j+j+j+j+j+j+j+j+j+j+j+j+x 7.j+",
"j+t.w j+j+j+j+j+j+j+j+j+j+j+j+j+V.M.C.>+K. .j+j+j+j+j+j+j+j+j+j+j+j+j+j+j+j+2+~+j+j+j+j+j+j+j+j+j+j+j+j+j+j+j+5.v.w M x j+j+j+j+j+j+j+j+j+j+j+j+j+j+x 7.j+",
"j+t.w j+j+j+j+j+j+j+j+j+j+j+j+j+=+q 8.y.`.K.Y j+j+j+j+j+j+j+j+j+j+j+j+j+U.~+@.;+~+j+j+j+j+j+j+j+j+j+j+j+j+j+'+a+r.G F |+L j+j+j+j+j+j+j+j+j+j+j+j+j+x 7.j+",
"j+t.w j+j+j+j+j+j+j+j+j+j+j+j+j+k+3.9.$.  5.w.y j+j+j+j+j+j+j+j+j+j+j+j+N.B.x.J.C.j+j+j+j+j+j+j+j+j+j+j+j+Q g a+M 7+^.E.m+j+j+j+j+j+j+j+j+j+j+j+j+j+x 7.j+",
"j+t.w j+j+j+j+j+j+j+j+j+j+j+j+j+j+j+j+N.+.  o ,.j+j+j+j+j+j+j+j+j+j+j+j+D.B.t.h u.j+j+j+j+j+j+j+j+j+j+j+j+=.s   q.M j+j+j+j+j+j+j+j+j+j+j+j+j+j+j+j+x 7.j+",
"j+t.w j+j+j+j+j+j+j+j+j+j+j+j+j+j+j+j+j+| I     :.i+j+j+j+j+j+j+j+j+j+j+w *+c.A.K.j+j+j+j+j+j+j+j+j+j+j+J 0+#.C  +j+j+j+j+j+j+j+j+j+j+j+j+j+j+j+j+j+x 7.j+",
"j+t.w j+j+j+j+j+j+j+j+j+j+j+j+j+j+j+j+j+j+j+m+( F.Q j+j+j+j+j+j+j+j+j+j+m+k.  +.m+j+j+j+j+j+j+j+j+j+j+j+o+V.V.j+j+j+j+j+j+j+j+j+j+j+j+j+j+j+j+j+j+j+x 7.j+",
"j+t.w j+j+j+j+j+j+j+j+j+j+j+j+j+j+j+j+j+j+j+j+j+j+j+j+j+j+j+j+j+j+j+j+j+j+*.  p j+j+j+j+j+j+j+j+j+j+j+j+j+j+j+j+j+j+j+j+j+j+j+j+j+j+j+j+j+j+j+j+j+j+x 7.j+",
"j+t.w j+j+j+j+j+j+j+j+j+j+j+j+j+j+j+j+j+j+j+j+j+j+j+j+j+j+j+j+j+j+j+j+j+j+-+k x j+j+j+j+j+j+j+j+j+j+j+j+j+j+j+j+j+j+j+j+j+j+j+j+j+j+j+j+j+j+j+j+j+j+x 7.j+",
"j+t.w j+j+j+j+j+j+j+j+j+j+j+j+j+j+j+j+j+j+j+j+j+j+j+j+j+j+j+j+j+j+j+j+j+j+j+}+U.j+j+j+j+j+j+j+j+j+j+j+j+j+j+j+j+j+j+j+j+j+j+j+j+j+j+j+j+j+j+j+j+j+j+x 7.j+",
"j+t.w j+j+j+j+j+j+j+j+j+j+j+j+j+j+j+j+j+j+j+j+j+j+j+j+j+j+j+j+j+j+j+j+j+j+j+/.i+j+j+j+j+j+j+j+j+j+j+j+j+j+j+j+j+j+j+j+j+j+j+j+j+j+j+j+j+j+j+j+j+j+j+x 7.j+",
"j+t.w j+j+j+j+j+j+j+j+j+j+j+j+j+j+j+j+j+j+j+j+j+j+j+j+j+j+j+j+j+j+j+j+j+j+j+j+j+j+j+j+j+j+j+j+j+j+j+j+j+j+j+j+j+j+j+j+j+j+j+j+j+j+j+j+j+j+j+j+j+j+j+x 7.j+",
"j+t.w j+j+j+j+j+j+j+j+j+j+j+j+j+j+j+j+j+j+j+j+j+j+j+j+j+j+j+j+j+j+j+j+j+j+j+j+j+j+j+j+j+j+j+j+j+j+j+j+j+j+j+j+j+j+j+j+j+j+j+j+j+j+j+j+j+j+j+j+j+j+j+x 7.j+",
"j+t.w j+j+j+j+j+j+j+j+j+j+j+j+j+j+j+j+j+j+j+j+j+j+j+j+j+j+j+j+j+j+j+j+j+j+j+j+j+j+j+j+j+j+j+j+j+j+j+j+j+j+j+j+j+j+j+j+j+j+j+j+j+j+j+j+j+j+j+j+j+j+j+x 7.j+",
"j+t.w j+j+j+j+j+j+j+j+j+j+j+j+j+j+j+j+j+m+q+j+j+j+j+j+j+j+j+j+j+j+j+j+j+j+j+j+j+j+j+j+j+j+j+j+j+j+j+j+j+j+j+j+q+n+j+j+j+j+j+j+j+j+j+j+j+j+j+j+j+j+j+x 7.j+",
"j+t.w j+j+j+j+j+j+j+j+j+j+j+j+j+j+j+j+j+;.%.K ,+>+++j+j+j+j+j+j+j+j+j+j+j+j+j+j+j+j+j+j+j+j+j+j+j+j+j+^+,+>+-.<.` j+j+j+j+j+j+j+j+j+j+j+j+j+j+j+j+j+x 7.j+",
"j+t.w j+j+j+j+j+j+j+O F.E.E.E.E.E.E.E.E.G.v         5+N.O.p+j+j+j+j+j+j+j+j+j+j+j+j+j+j+j+j+j+j+w P./.[+      C.H.E.E.E.E.E.E.E.E.F.;.j+j+j+j+j+j+j+x 7.j+",
"j+t.w j+j+j+j+j+j+j+>+A.v v v v v v v v y.z.q.        k G.p+j+j+j+j+j+j+j+j+j+j+j+j+j+j+j+j+j+j+N.+.        m.z.z.v v v v v v v v A.I j+j+j+j+j+j+j+x 7.j+",
"j+t.w j+j+j+j+j+j+j+j+j+j+j+j+j+j+j+j+j+Q <.l.Q Q -.Q !+j+j+j+j+j+j+j+j+j+j+j+j+j+j+j+j+j+j+j+j+j+m+Q -.-.Q r.}.>.j+j+j+j+j+j+j+j+j+j+j+j+j+j+j+j+j+x 7.j+",
"j+t.w j+j+j+j+j+j+j+j+j+j+j+j+j+j+j+j+j+o+~+U.j+j+j+j+j+j+j+j+j+j+j+j+j+j+j+j+j+j+j+j+j+j+j+j+j+j+j+j+j+j+j+5 {+q+j+j+j+j+j+j+j+j+j+j+j+j+j+j+j+j+j+x 7.j+",
"j+t.w j+j+j+j+j+j+j+j+j+j+j+j+j+j+j+j+j+j+j+j+j+j+j+j+j+j+j+j+j+j+j+j+j+j+j+j+j+j+j+j+j+j+j+j+j+j+j+j+j+j+j+j+j+j+j+j+j+j+j+j+j+j+j+j+j+j+j+j+j+j+j+x 7.j+",
"j+t.w j+j+j+j+j+j+j+j+j+j+j+j+j+j+j+j+j+j+j+j+j+j+j+j+j+j+j+j+j+j+j+j+j+j+j+j+j+j+j+j+j+j+j+j+j+j+j+j+j+j+j+j+j+j+j+j+j+j+j+j+j+j+j+j+j+j+j+j+j+j+j+x 7.j+",
"j+t.w j+j+j+j+j+j+j+j+j+j+j+j+j+j+j+j+j+j+j+j+j+j+j+j+j+j+j+j+j+j+j+j+j+j+j+j+j+j+j+j+j+j+j+j+j+j+j+j+j+j+j+j+j+j+j+j+j+j+j+j+j+j+j+j+j+j+j+j+j+j+j+x 7.j+",
"j+t.w j+j+j+j+j+j+j+j+j+j+j+j+j+j+j+j+j+j+j+j+j+j+j+j+j+j+j+j+j+j+j+j+j+j+j+j+j+j+j+j+j+j+j+j+j+j+j+j+j+j+j+j+j+j+j+j+j+j+j+j+j+j+j+j+j+j+j+j+j+j+j+x 7.j+",
"j+t.w j+j+j+j+j+j+j+j+j+j+j+j+j+j+j+j+j+j+j+j+j+j+j+j+j+j+j+j+j+j+j+j+j+j+j+M.o+j+j+j+j+j+j+j+j+j+j+j+j+j+j+j+j+j+j+j+j+j+j+j+j+j+j+j+j+j+j+j+j+j+j+x 7.j+",
"j+t.w j+j+j+j+j+j+j+j+j+j+j+j+j+j+j+j+j+j+j+j+j+j+j+j+j+j+j+j+j+j+j+j+j+j+ +g J j+j+j+j+j+j+j+j+j+j+j+j+j+j+j+j+j+j+j+j+j+j+j+j+j+j+j+j+j+j+j+j+j+j+x 7.j+",
"j+t.w j+j+j+j+j+j+j+j+j+j+j+j+j+j+j+j+j+j+j+j+j+j+j+j+j+j+j+j+j+j+j+j+j+j+b.    j+j+j+j+j+j+j+j+j+j+j+j+j+j+j+j+j+j+j+j+j+j+j+j+j+j+j+j+j+j+j+j+j+j+x 7.j+",
"j+t.w j+j+j+j+j+j+j+j+j+j+j+j+j+j+j+j+j+j+j+j+o+P.-.j+j+j+j+j+j+j+j+j+j+k+l.  2+k+j+j+j+j+j+j+j+j+j+j+ +E.l+j+j+j+j+j+j+j+j+j+j+j+j+j+j+j+j+j+j+j+j+x 7.j+",
"j+t.w j+j+j+j+j+j+j+j+j+j+j+j+j+j+j+j+j+j+~+..0+E.U.j+j+j+j+j+j+j+j+j+j+4.*+f.M G.j+j+j+j+j+j+j+j+j+j+q+E.  2.'+j+j+j+j+j+j+j+j+j+j+j+j+j+j+j+j+j+j+x 7.j+",
"j+t.w j+j+j+j+j+j+j+j+j+j+j+j+j+j+j+j+4.(.k k   j+j+j+j+j+j+j+j+j+j+j+j+D.B.a+h v.j+j+j+j+j+j+j+j+j+j+j+-.    v._+]+j+j+j+j+j+j+j+j+j+j+j+j+j+j+j+j+x 7.j+",
"j+t.w j+j+j+j+j+j+j+j+j+j+j+j+j+j+Z =.c.  @.*+F j+j+j+j+j+j+j+j+j+j+j+j+O.*+w.L.r.j+j+j+j+j+j+j+j+j+j+j+j+R ' p o *+$./.k+j+j+j+j+j+j+j+j+j+j+j+j+j+x 7.j+",
"j+t.w j+j+j+j+j+j+j+j+j+j+j+j+j+'+|+$.v K r.Z j+j+j+j+j+j+j+j+j+j+j+j+j+~+Z.^.'+`.j+j+j+j+j+j+j+j+j+j+j+j+j+K r J.L.4.  L j+j+j+j+j+j+j+j+j+j+j+j+j+x 7.j+",
"j+t.w j+j+j+j+j+j+j+j+j+j+j+j+j+j+I l.`.4.B.j+j+j+j+j+j+j+j+j+j+j+j+j+j+j+j+2+S j+j+j+j+j+j+j+j+j+j+j+j+j+j+j+2.v.w #+j+j+j+j+j+j+j+j+j+j+j+j+j+j+j+x 7.j+",
"j+t.w j+j+j+j+j+j+j+j+j+j+j+j+l+o.p.)+++o.R j+j+j+j+j+j+j+j+j+j+j+j+j+j+j+j+,.Y.j+j+j+j+j+j+j+j+j+j+j+j+j+j+j+-+j.'+D.b.-.j+j+j+j+j+j+j+j+j+j+j+j+j+x 7.j+",
"j+t.w j+j+j+j+j+j+j+j+j+j+j+5 t.N.O j+~+,+j+j+j+j+j+j+j+j+j+j+j+j+j+j+j+j+j+,.Y.j+j+j+j+j+j+j+j+j+j+j+j+j+j+j+j+ +`.j+ .k.K j+j+j+j+j+j+j+j+j+j+j+j+x 7.j+",
"j+t.w j+j+j+j+j+j+j+j+j+j+3.i.Z j+j+j+j+j+j+j+j+j+j+j+j+j+j+j+j+j+j+j+j+j+j+,.Y.j+j+j+j+j+j+j+j+j+j+j+j+j+j+j+j+j+j+j+j+Y.i._.Y.j+j+j+j+j+j+j+j+j+j+x 7.j+",
"j+t.w j+j+j+j+j+j+j+j+j+O.f.F j+j+j+j+j+j+j+j+j+j+j+j+j+j+j+j+j+j+j+j+j+j+j+,.Y.j+j+j+j+j+j+j+j+j+j+j+j+j+j+j+j+j+j+j+j+j+W.j.j..+j+j+j+j+j+j+j+j+j+x 7.j+",
"j+t.w j+j+j+j+j+j+j+o+A.y.j+j+j+j+j+j+j+j+j+j+j+j+j+j+j+j+j+j+j+j+j+j+j+j+j+p `.j+j+j+j+j+j+j+j+j+j+j+j+j+j+j+j+j+j+j+j+j+j+j+J o.=+5 j+j+j+j+j+j+j+x 7.j+",
"j+t.w j+j+j+j+j+j+j+J |+'+j+j+j+j+j+j+j+j+j+j+j+j+j+j+j+j+j+j+j+j+j+j+j+j+j+x.S j+j+j+j+j+j+j+j+j+j+j+j+j+j+j+j+j+j+j+j+j+j+j+j+P e+$+j+j+j+j+j+j+j+x 7.j+",
"j+t.w j+j+j+j+j+j+j+j+j+j+j+j+j+j+j+j+j+j+j+j+j+j+j+j+j+j+j+j+j+j+j+j+j+j+j+j+j+j+j+j+j+j+j+j+j+j+j+j+j+j+j+j+j+j+j+j+j+j+j+j+j+j+j+j+j+j+j+j+j+j+j+x 7.j+",
"j+t.w j+j+j+j+j+j+j+j+j+j+j+j+j+j+j+j+j+j+j+j+j+j+j+j+j+j+j+j+j+j+j+j+j+j+j+j+j+j+j+j+j+j+j+j+j+j+j+j+j+j+j+j+j+j+j+j+j+j+j+j+j+j+j+j+j+j+j+j+j+j+j+x 7.j+",
"j+t.w j+j+j+j+j+j+j+j+j+j+j+j+j+j+j+j+j+j+j+j+j+j+j+j+j+j+j+j+j+j+j+j+j+j+j+j+j+j+j+j+j+j+j+j+j+j+j+j+j+j+j+j+j+j+j+j+j+j+j+j+j+j+j+j+j+j+j+j+j+j+j+x 7.j+",
"j+t.w j+j+j+j+j+j+j+j+j+j+j+j+j+j+j+j+j+j+j+j+j+j+j+j+j+j+j+j+j+j+j+j+j+j+j+j+j+j+j+j+j+j+j+j+j+j+j+j+j+j+j+j+j+j+j+j+j+j+j+j+j+j+j+j+j+j+j+j+j+j+j+x 7.j+",
"j+t.w j+j+j+j+j+j+j+j+j+j+j+j+j+j+j+j+j+j+j+j+j+j+j+j+j+j+j+j+j+j+j+j+j+j+j+j+j+j+j+j+j+j+j+j+j+j+j+j+j+j+j+j+j+j+j+j+j+j+j+j+j+j+j+j+j+j+j+j+j+j+j+x 7.j+",
"j+u...j+j+j+j+j+j+j+j+j+j+j+j+j+j+j+j+j+j+j+j+j+j+j+j+j+j+j+j+j+j+j+j+j+j+j+j+j+j+j+j+j+j+j+j+j+j+j+j+j+j+j+j+j+j+j+j+j+j+j+j+j+j+j+j+j+j+j+j+j+j+j+-.7.j+",
"j+w.].O.O.O.O.O.O.O.O.O.O.O.O.O.O.O.O.O.O.O.O.O.O.O.O.O.O.O.O.O.O.O.O.O.O.O.O.O.O.O.O.O.O.O.O.O.O.O.O.O.O.O.O.O.O.O.O.O.O.O.O.O.O.O.O.O.O.O.O.O.O.O.o.^.j+",
"j+I *+C.C.C.C.C.C.C.C.C.C.C.C.C.C.C.C.C.C.C.C.C.C.C.C.C.C.C.C.C.C.C.C.C.C.C.C.C.C.C.C.C.C.C.C.C.C.C.C.C.C.C.C.C.C.C.C.C.C.C.C.C.C.C.C.C.C.C.C.C.C.C.C.G j+",
"j+j+j+j+j+j+j+j+j+j+j+j+j+j+j+j+j+j+j+j+j+j+j+j+j+j+j+j+j+j+j+j+j+j+j+j+j+j+j+j+j+j+j+j+j+j+j+j+j+j+j+j+j+j+j+j+j+j+j+j+j+j+j+j+j+j+j+j+j+j+j+j+j+j+j+j+j+",
"j+j+j+j+j+j+j+j+j+j+j+j+j+j+j+j+j+j+j+j+j+j+j+j+j+j+j+j+j+j+j+j+j+j+j+j+j+j+j+j+j+j+j+j+j+j+j+j+j+j+j+j+j+j+j+j+j+j+j+j+j+j+j+j+j+j+j+j+j+j+j+j+j+j+j+j+j+",
"j+j+j+j+j+j+j+j+j+j+j+j+j+j+j+j+j+j+j+j+j+j+j+j+j+j+j+j+j+j+j+j+j+j+j+j+j+j+j+j+j+j+j+j+j+j+j+j+j+j+j+j+j+j+j+j+j+j+j+j+j+j+j+j+j+j+j+j+j+j+j+j+j+j+j+j+j+",
"j+j+j+j+j+j+j+j+j+j+j+j+j+j+j+j+j+j+j+j+j+j+j+j+j+j+j+j+j+j+j+j+j+j+j+j+j+j+j+j+j+j+j+j+j+j+j+j+j+j+j+j+j+j+j+j+j+j+j+j+j+j+j+j+j+j+j+j+j+j+j+j+j+j+j+j+j+",
"j+j+j+j+j+j+j+j+j+j+j+j+j+j+j+j+j+j+j+j+j+j+j+j+j+j+j+j+j+j+j+j+j+j+j+j+j+j+j+j+j+j+j+j+j+j+j+j+j+j+j+j+j+j+j+j+j+j+j+j+j+j+j+j+j+j+j+j+j+j+j+j+j+j+j+j+j+"};
